<svg width="841px" height="163px" viewBox="127 371 841 163" version="1.1" xmlns="http://www.w3.org/2000/svg" xmlns:xlink="http://www.w3.org/1999/xlink">
    <!-- Generator: Sketch 39.1 (31720) - http://www.bohemiancoding.com/sketch -->
    <desc>Created with Sketch.</desc>
    <defs></defs>
    <g id="univer" stroke="none" stroke-width="1" fill="none" fill-rule="evenodd" transform="translate(127.000000, 371.000000)">
        <path d="M618.46,18.99 C618.43,8.34 628.81,-0.41 639.27,0.58 C639.5,0.82 639.95,1.3 640.17,1.54 C640.35,29.34 640.14,57.15 640.27,84.95 C640.12,92.43 647.85,97.93 654.93,97.25 C663.81,97.26 672.68,97.17 681.56,97.29 C681.27,102.9 682.02,108.62 681.23,114.16 C669.13,114.36 657.03,114.17 644.94,114.25 C637.28,114.37 629.68,111.14 624.38,105.64 C620.78,102.06 618.18,97.12 618.44,91.94 C618.46,67.62 618.41,43.31 618.46,18.99 L618.46,18.99 Z" id="Shape" fill="#2F2E2D"></path>
        <path d="M1.63,47.93 C4.5,40.01 13.11,35.78 21.18,35.8 C21.46,36.05 22.03,36.55 22.31,36.8 C22.45,62.61 22.33,88.44 22.36,114.26 C15.23,114.27 8.09,114.26 0.95,114.26 C-0.37,105.55 0.43,96.72 0.24,87.96 C0.03,80.64 0.88,73.34 0.33,66.04 C-0.07,59.99 0.04,53.81 1.63,47.93 L1.63,47.93 Z" id="Shape" fill="#2F2E2D"></path>
        <path d="M43.06,40.13 C49.09,34.44 58.11,36.06 65.63,36.33 C60.64,40.22 58.22,47.77 60.43,53.7 L59.44,53.28 C59.55,73.56 59.4,93.83 59.52,114.11 C52.64,114.35 45.74,114.34 38.86,114.18 C38.58,113.95 38.04,113.47 37.77,113.23 C37.65,93.82 37.78,74.4 37.71,54.99 C37.64,49.63 38.88,43.83 43.06,40.13 L43.06,40.13 Z" id="Shape" fill="#2F2E2D"></path>
        <path d="M138.65,38 C143.97,35.02 150.27,36.91 156.01,35.89 C157.08,36.07 158.16,36.25 159.23,36.42 C153.09,39.57 153.81,47.27 153.67,53.11 C153.76,69.73 153.73,86.35 153.69,102.98 C153.58,107.58 151.04,113.22 146.09,114.16 C140.01,114.52 133.91,113.95 127.85,114.5 C132.34,109.34 132.18,102.15 132.32,95.72 C132.33,80.15 132.28,64.58 132.34,49.02 C132.13,44.52 134.61,40.03 138.65,38 L138.65,38 Z" id="Shape" fill="#2F2E2D"></path>
        <path d="M227.06,47.96 C227.15,42.05 232.24,37.12 237.98,36.47 C243.26,35.91 248.61,35.94 253.9,36.44 C249.49,38.99 248.46,44.32 248.53,49.03 C248.49,65.33 248.51,81.62 248.52,97.92 C248.46,101.27 248.85,104.81 247.38,107.94 C246.1,111.01 243.61,114.25 239.96,114.23 C234.22,114.43 228.47,114.01 222.74,114.5 C226.91,109.24 227,102.42 226.84,96.04 C226.84,90.7 226.77,85.35 226.82,80.01 C226.95,69.33 226.48,58.62 227.06,47.96 L227.06,47.96 Z" id="Shape" fill="#2F2E2D"></path>
        <path d="M283.61,36.83 C291.33,35.02 299.18,36.58 306.98,36.18 C315.31,36.37 323.64,35.88 331.97,36.11 C340.26,35.37 349.31,35.72 356.37,40.67 C362.63,44.6 367.14,51.42 367.15,58.96 C367.2,69.98 367.33,81.01 367.08,92.03 C366.65,104.79 353.98,113.79 341.99,114.21 C325,114.27 308.01,114.21 291.02,114.24 C277.97,114.51 263.6,104.06 264.63,89.99 C264.71,78.98 264.57,67.96 264.7,56.96 C265.49,46.88 274.41,39.47 283.61,36.83 L283.61,36.83 Z" id="Shape" fill="#2F2E2D"></path>
        <path d="M395.98,39.03 C403.92,34.54 413.35,36.74 422.03,36.14 C427.01,35.38 431.99,36.59 436.98,35.9 C447.69,36.77 458.92,33.95 469.24,38 C477.26,41.36 484.94,48.7 484.79,57.97 C484.74,70.11 484.96,82.27 484.68,94.4 C482.95,106.37 470.41,114.18 458.95,114.24 C440.73,114.18 422.51,114.36 404.3,114.13 C404.26,124.41 404.49,134.69 404.2,144.96 C403.51,155.59 393.07,164.01 382.53,162.59 C382.64,127.73 382.55,92.86 382.58,57.99 C382.57,49.61 388.85,42.66 395.98,39.03 L395.98,39.03 Z" id="Shape" fill="#2F2E2D"></path>
        <path d="M514.15,39.15 C518.94,36.45 524.52,35.88 529.92,35.76 C543.28,35.76 556.59,36.24 569.96,36.24 C577.14,35.49 584.85,35.84 591.16,39.73 C597.75,43.43 603.23,50.17 603.29,58.01 C603.29,69.68 603.37,81.35 603.25,93.02 C602.39,105.09 590.31,113.45 578.95,114.17 C561.98,114.33 545.01,114.17 528.04,114.25 C518.19,114.53 508.08,109.4 503.18,100.74 C500.39,95.63 500.71,89.6 500.73,83.98 C500.9,74.99 500.41,65.97 500.98,57.01 C501.48,49.08 507.43,42.71 514.15,39.15 L514.15,39.15 Z" id="Shape" fill="#2F2E2D"></path>
        <path d="M711.99,36.99 C714.76,35.97 717.75,36.27 720.66,36.07 C720.73,62.1 720.62,88.13 720.72,114.16 C713.52,114.37 706.33,114.23 699.14,114.25 C699.17,93.81 699.11,73.37 699.16,52.93 C699,45.41 705.11,39.12 711.99,36.99 L711.99,36.99 Z" id="Shape" fill="#2F2E2D"></path>
        <path d="M767.08,36.22 C790.58,36.27 814.08,36.15 837.58,36.28 C837.5,41.95 837.62,47.64 837.48,53.32 C814.31,53.28 791.14,53.3 767.97,53.3 C764.97,53.07 761.65,54.5 760.55,57.46 C760,59.91 760.02,62.94 762.22,64.63 C764.55,66.92 768.01,66.6 771.01,66.62 C785.03,66.42 799.04,66.52 813.06,66.5 C822.43,66.3 832.03,70.99 837.07,79 C840.44,84.14 840.45,90.69 839.37,96.54 C836.14,107.67 824.17,114.53 812.97,114.25 C788.09,114.16 763.21,114.37 738.33,114.14 C738.38,108.52 738.38,102.89 738.34,97.28 C762.21,97.17 786.08,97.28 809.95,97.22 C813.44,97.35 817.3,95.59 818.24,91.96 C819.41,87.59 815.24,83.36 810.93,83.56 C794.63,83.52 778.33,83.74 762.03,83.54 C751.73,82.83 741.47,75.72 738.72,65.51 C738.16,61.74 738.16,57.86 738.73,54.11 C740.94,45.95 748.1,39.91 755.91,37.29 C759.48,35.96 763.34,36.27 767.08,36.22 L767.08,36.22 Z" id="Shape" fill="#2F2E2D"></path>
        <path d="M65.63,36.33 C68.74,35.67 71.9,36.65 73.98,39.08 C89.51,54.55 105.34,69.72 121,85.06 C124.77,88.61 128.16,92.59 132.32,95.72 C132.18,102.15 132.34,109.34 127.85,114.5 C123.76,114.51 120.04,112.63 117.25,109.73 C98.18,91.19 79.43,72.31 60.43,53.7 C58.22,47.77 60.64,40.22 65.63,36.33 L65.63,36.33 Z" id="Shape" fill="#73B737"></path>
        <path d="M153.67,53.11 C153.81,47.27 153.09,39.57 159.23,36.42 C161.14,36.06 163.13,36.11 165.04,36.45 C169.05,38.82 171.96,42.57 175.39,45.66 C192.47,62.53 209.7,79.24 226.84,96.04 C227,102.42 226.91,109.24 222.74,114.5 C218.68,114.52 214.85,112.84 212.07,109.9 C196.26,94.4 180.66,78.68 164.75,63.27 C161.07,59.87 157.89,55.88 153.67,53.11 L153.67,53.11 Z" id="Shape" fill="#73B737"></path>
        <path d="M290.62,53.84 C292.66,53.15 294.87,53.33 296.99,53.28 C310.69,53.36 324.39,53.21 338.09,53.35 C342.14,53.19 345.7,56.88 345.69,60.88 C345.82,70.27 345.77,79.67 345.72,89.07 C345.87,93.65 341.49,97.38 337.04,97.22 C324,97.29 310.96,97.18 297.92,97.26 C295.46,97.25 292.91,97.33 290.61,96.35 C287.56,94.79 285.63,91.42 285.77,88 C285.79,79.31 285.73,70.61 285.8,61.92 C285.77,58.57 287.61,55.35 290.62,53.84 L290.62,53.84 Z" id="Shape" fill="#f7df1e"></path>
        <path d="M410.33,53.44 C425.51,53.13 440.72,53.34 455.91,53.33 C460.06,53.16 463.66,56.93 463.66,61.02 C463.78,70 463.68,78.98 463.71,87.97 C463.89,90.8 462.76,93.74 460.44,95.45 C458.07,97.34 454.88,97.27 452.02,97.26 C438.69,97.15 425.35,97.35 412.02,97.17 C407.65,97.13 403.85,93.31 403.74,88.97 C403.68,79.97 403.72,70.98 403.72,61.99 C403.56,58.1 406.36,53.97 410.33,53.44 L410.33,53.44 Z" id="Shape" fill="#f7df1e"></path>
        <path d="M527.46,53.69 C529.93,53.09 532.51,53.33 535.04,53.28 C548.03,53.34 561.02,53.24 574.01,53.33 C580.17,52.84 583.12,59.79 582.18,65.02 C582.07,73.05 582.26,81.08 582.1,89.1 C582.08,93.8 577.57,97.53 572.98,97.23 C558.97,97.24 544.95,97.26 530.94,97.21 C526.52,97.37 522,93.67 522.32,89.05 C522.28,79.73 522.26,70.41 522.34,61.1 C522.17,57.82 524.41,54.78 527.46,53.69 L527.46,53.69 Z" id="Shape" fill="#f7df1e"></path>
    </g>
</svg>
